<svg width="148" height="40" viewBox="0 0 148 40" fill="none" xmlns="http://www.w3.org/2000/svg">
<rect x="1.47025" y="6.21991" width="29.4063" height="31.0995" rx="5.96074" fill="#FCEC41"/>
<rect y="7.7749" width="29.4063" height="31.0995" rx="5.96074" fill="#FBE303"/>
<path fill-rule="evenodd" clip-rule="evenodd" d="M12.2589 13.0345C12.1765 13.0768 12.0816 13.1768 12.0422 13.2629C11.9763 13.4069 11.9832 13.537 12.1576 15.4315C12.2597 16.5399 12.3424 17.4941 12.3414 17.5517C12.3318 18.1333 11.5036 18.2387 11.3376 17.6795C11.3145 17.6017 11.2534 17.056 11.2018 16.4669C11.1502 15.8778 11.0996 15.3687 11.0895 15.3355C11.0661 15.2589 10.5663 15.5389 9.95496 15.971C8.74197 16.8283 7.77065 18.0087 7.12751 19.4068C6.88579 19.9323 6.604 20.7887 6.49377 21.3326L6.41759 21.7086H6.11291C5.67377 21.7086 5.4846 21.7813 5.22771 22.0489C4.91848 22.371 4.83302 22.7117 4.95422 23.1391C5.02524 23.3894 5.38773 23.767 5.62808 23.841C5.76692 23.8837 7.84893 23.8964 14.7108 23.8964C24.7541 23.8964 23.8674 23.9304 24.211 23.5323C24.6033 23.0778 24.6033 22.5273 24.211 22.0727C23.9804 21.8055 23.738 21.7086 23.3005 21.7086H22.9876L22.9114 21.3326C22.5537 19.5673 21.5798 17.8298 20.2816 16.6408C19.6138 16.0291 18.3589 15.1954 18.3158 15.3348C18.3055 15.3683 18.2536 15.8881 18.2006 16.4897C18.1475 17.0914 18.0784 17.6498 18.0469 17.7308C17.9803 17.9017 17.7536 18.0618 17.5774 18.062C17.3128 18.0624 17.0681 17.8194 17.0638 17.5517C17.0628 17.4941 17.1456 16.5385 17.2479 15.4283C17.4309 13.4405 17.4325 13.4074 17.3534 13.2543C17.1974 12.9526 17.2383 12.9571 14.696 12.9583C12.6571 12.9592 12.3892 12.9676 12.2589 13.0345ZM7.37329 25.397C6.83136 25.535 6.40521 26.0223 6.3222 26.599L6.29131 26.8135H5.70356C5.13787 26.8135 5.11179 26.8177 5.00844 26.9254C4.90189 27.0364 4.90102 27.0443 4.90102 27.9074C4.90102 28.7705 4.90189 28.7785 5.00844 28.8895C5.11188 28.9973 5.13757 29.0014 5.70855 29.0014H6.30124V29.796C6.30124 30.2383 6.32159 30.6476 6.3471 30.719C6.40818 30.8899 7.94721 32.5028 8.1267 32.584C8.33419 32.678 12.6668 32.678 12.8826 32.5841C13.0355 32.5175 13.0497 32.5007 13.5864 31.7488C13.9657 31.2173 14.6049 30.505 14.7026 30.505C14.8003 30.505 15.4395 31.2173 15.8188 31.7488C16.3555 32.5007 16.3696 32.5175 16.5226 32.5841C16.7384 32.678 21.071 32.678 21.2785 32.584C21.458 32.5028 22.997 30.8899 23.0581 30.719C23.0836 30.6476 23.1039 30.2383 23.1039 29.796V29.0014H23.6966C24.2676 29.0014 24.2933 28.9973 24.3968 28.8895C24.5033 28.7785 24.5042 28.7705 24.5042 27.9074C24.5042 27.0443 24.5033 27.0364 24.3968 26.9254C24.2934 26.8177 24.2673 26.8135 23.7016 26.8135H23.1139L23.0829 26.5984C23.0482 26.357 22.9011 26.0284 22.7367 25.8249C22.6764 25.7503 22.503 25.6192 22.3514 25.5335L22.0757 25.3778L14.7901 25.3707C10.7831 25.3668 7.44549 25.3787 7.37329 25.397ZM21.7037 28.4879V30.1622L21.2122 30.6757L20.7206 31.1892H18.9458H17.171L16.8902 30.7904C16.7358 30.571 16.3823 30.1541 16.1045 29.8639C15.196 28.9145 14.6686 28.7859 13.8946 29.3252C13.5229 29.5841 12.9027 30.2438 12.5095 30.7984L12.2324 31.1892H10.4599H8.68736L8.19443 30.6771L7.70147 30.1651V28.4893V26.8135H14.7026H21.7037V28.4879Z" fill="#171B24"/>
<path fill-rule="evenodd" clip-rule="evenodd" d="M10.2922 6.21991C10.2922 2.78475 12.9253 0 16.1735 0C19.4216 0 22.0547 2.78475 22.0547 6.21991H20.0943C20.0943 3.9298 18.3389 2.0733 16.1735 2.0733C14.008 2.0733 12.2526 3.9298 12.2526 6.21991H10.2922Z" fill="#FDF074"/>
<path fill-rule="evenodd" clip-rule="evenodd" d="M8.82193 7.7749C8.82193 4.33974 11.4551 1.55499 14.7032 1.55499H15.1933C18.4414 1.55499 21.0746 4.33974 21.0746 7.7749H19.1141C19.1141 5.48479 17.3587 3.62829 15.1933 3.62829H14.7032C12.5378 3.62829 10.7824 5.48479 10.7824 7.7749H8.82193Z" fill="#FBE303"/>
<path d="M43.0607 28.4822C42.2621 28.4822 41.5692 28.3891 40.982 28.2028C40.3948 28.0165 39.9016 27.7556 39.5023 27.4203C39.1148 27.085 38.8153 26.6937 38.6039 26.2466C38.3925 25.7871 38.2633 25.2841 38.2164 24.7376H40.3302C40.3772 24.9984 40.4535 25.2344 40.5592 25.4455C40.6767 25.6567 40.8411 25.843 41.0525 26.0044C41.2639 26.1659 41.5281 26.2901 41.8452 26.377C42.174 26.464 42.5792 26.5074 43.0607 26.5074C43.5539 26.5074 43.9708 26.464 44.3114 26.377C44.6637 26.2777 44.9455 26.1535 45.1569 26.0044C45.38 25.843 45.5386 25.6567 45.6325 25.4455C45.7382 25.222 45.7911 24.986 45.7911 24.7376C45.7911 24.129 45.521 23.6695 44.9808 23.359C44.4523 23.0485 43.6244 22.769 42.497 22.5206C41.8628 22.3716 41.2991 22.1977 40.8059 21.999C40.3126 21.7879 39.9016 21.5333 39.5728 21.2352C39.2439 20.9247 38.9915 20.5583 38.8153 20.136C38.6509 19.7013 38.5687 19.1859 38.5687 18.5897C38.5687 18.1054 38.6626 17.6458 38.8505 17.2111C39.0502 16.7764 39.3379 16.3976 39.7137 16.0747C40.0895 15.7518 40.5534 15.4972 41.1053 15.3109C41.669 15.1246 42.3208 15.0314 43.0607 15.0314C43.777 15.0314 44.4053 15.1184 44.9455 15.2923C45.4857 15.4661 45.9379 15.7145 46.3019 16.0374C46.6777 16.3479 46.9654 16.7205 47.1651 17.1552C47.3765 17.5899 47.5057 18.0681 47.5526 18.5897H45.4388C45.3448 18.1178 45.1041 17.739 44.7165 17.4533C44.3407 17.1552 43.7888 17.0062 43.0607 17.0062C42.2151 17.0062 41.6044 17.1614 41.2286 17.4719C40.8646 17.7824 40.6826 18.155 40.6826 18.5897C40.6826 19.1859 40.9174 19.633 41.3872 19.9311C41.8569 20.2292 42.5792 20.4838 43.5539 20.6949C44.2703 20.8564 44.8985 21.0427 45.4388 21.2538C45.9907 21.465 46.4487 21.732 46.8128 22.0549C47.1768 22.3654 47.4469 22.738 47.6231 23.1727C47.811 23.6074 47.9049 24.129 47.9049 24.7376C47.9049 25.2717 47.8051 25.7685 47.6055 26.228C47.4058 26.6875 47.1005 27.085 46.6895 27.4203C46.2902 27.7556 45.7852 28.0165 45.1745 28.2028C44.5756 28.3891 43.871 28.4822 43.0607 28.4822Z" fill="#171B24"/>
<path d="M53.5509 28.3704C52.4822 28.3704 51.713 28.1282 51.2432 27.6439C50.7852 27.1595 50.5562 26.377 50.5562 25.2965V20.1546H49.2351V18.4034H50.5562V16.1679H52.4939V18.4034H54.872V20.1546H52.4939V25.017C52.4939 25.6008 52.5938 26.0106 52.7934 26.2466C53.0048 26.4702 53.4041 26.582 53.9913 26.582C54.3436 26.582 54.6959 26.5633 55.0482 26.5261V28.2773C54.8251 28.3021 54.5961 28.3207 54.3612 28.3332C54.1263 28.358 53.8562 28.3704 53.5509 28.3704Z" fill="#171B24"/>
<path d="M56.9928 18.4034H58.7896V20.0801C58.9775 19.5709 59.2828 19.13 59.7056 18.7574C60.1401 18.3848 60.6745 18.1985 61.3086 18.1985C61.6022 18.1985 61.8195 18.2109 61.9604 18.2358C62.1131 18.2606 62.2188 18.2855 62.2775 18.3103V20.1733C62.0778 20.1112 61.8958 20.0677 61.7314 20.0429C61.567 20.0056 61.3673 19.987 61.1325 19.987C60.7449 19.987 60.4102 20.0615 60.1284 20.2105C59.8583 20.3472 59.6351 20.5335 59.459 20.7694C59.2828 20.993 59.1478 21.26 59.0538 21.5705C58.9716 21.8686 58.9305 22.1791 58.9305 22.502V28.2773H56.9928V18.4034Z" fill="#171B24"/>
<path d="M67.7362 28.4822C67.0903 28.4822 66.4855 28.3766 65.9218 28.1655C65.3699 27.9419 64.8884 27.619 64.4774 27.1967C64.0663 26.7745 63.7434 26.2528 63.5085 25.6318C63.2736 24.9984 63.1562 24.2656 63.1562 23.4335V23.0609C63.1562 22.2785 63.2736 21.5891 63.5085 20.993C63.7434 20.3844 64.0663 19.8752 64.4774 19.4653C64.8884 19.0431 65.3699 18.7264 65.9218 18.5152C66.4855 18.3041 67.0903 18.1985 67.7362 18.1985C68.3821 18.1985 68.9811 18.3041 69.533 18.5152C70.0967 18.7264 70.5841 19.0431 70.9951 19.4653C71.4062 19.8752 71.7291 20.3844 71.964 20.993C72.1989 21.5891 72.3163 22.2785 72.3163 23.0609V23.4335C72.3163 24.2656 72.1989 24.9984 71.964 25.6318C71.7291 26.2528 71.4062 26.7745 70.9951 27.1967C70.5841 27.619 70.0967 27.9419 69.533 28.1655C68.9811 28.3766 68.3821 28.4822 67.7362 28.4822ZM67.7362 26.6937C68.0768 26.6937 68.3998 26.6316 68.7051 26.5074C69.0222 26.3832 69.2982 26.1907 69.533 25.9299C69.7796 25.6691 69.9734 25.3338 70.1143 24.9239C70.267 24.514 70.3433 24.0172 70.3433 23.4335V23.0609C70.3433 22.5269 70.267 22.0673 70.1143 21.6823C69.9734 21.2973 69.7796 20.9806 69.533 20.7322C69.2982 20.4838 69.0222 20.2975 68.7051 20.1733C68.3998 20.0491 68.0768 19.987 67.7362 19.987C67.3957 19.987 67.0668 20.0491 66.7498 20.1733C66.4444 20.2975 66.1685 20.4838 65.9218 20.7322C65.687 20.9806 65.4932 21.2973 65.3405 21.6823C65.1996 22.0673 65.1291 22.5269 65.1291 23.0609V23.4335C65.1291 24.0172 65.1996 24.514 65.3405 24.9239C65.4932 25.3338 65.687 25.6691 65.9218 25.9299C66.1685 26.1907 66.4444 26.3832 66.7498 26.5074C67.0668 26.6316 67.3957 26.6937 67.7362 26.6937Z" fill="#171B24"/>
<path d="M75.4004 32.2082C75.2242 32.2082 75.0481 32.1896 74.8719 32.1523V30.3638C75.0481 30.4011 75.2242 30.4197 75.4004 30.4197C75.6 30.4197 75.7645 30.3825 75.8936 30.3079C76.0346 30.2458 76.1579 30.1278 76.2636 29.954C76.381 29.7925 76.4926 29.5752 76.5983 29.3019C76.7157 29.0287 76.8449 28.6871 76.9858 28.2773L73.0223 18.4034H75.1362L77.9899 26.0417L80.5618 18.4034H82.5347L78.9235 28.2773C78.6651 28.9728 78.4244 29.5689 78.2013 30.0657C77.9781 30.5625 77.7315 30.9662 77.4614 31.2767C77.2031 31.5996 76.9095 31.8356 76.5806 31.9846C76.2518 32.1337 75.8584 32.2082 75.4004 32.2082Z" fill="#171B24"/>
<path d="M84.1215 15.2364H86.0592V22.7069L89.9346 18.4034H92.2247L88.4549 22.5952L92.577 28.2773H90.2517L87.169 23.8993L86.0592 25.0916V28.2773H84.1215V15.2364Z" fill="#171B24"/>
<path d="M96.7263 28.4822C96.2213 28.4822 95.7691 28.4077 95.3699 28.2586C94.9823 28.0972 94.6535 27.8798 94.3834 27.6066C94.1133 27.3209 93.9078 26.9918 93.7668 26.6192C93.6259 26.2466 93.5555 25.8368 93.5555 25.3896C93.5555 24.4085 93.8314 23.6819 94.3834 23.2099C94.9353 22.7256 95.7457 22.4834 96.8143 22.4834H99.7209V21.9431C99.7209 21.1979 99.5624 20.6887 99.2453 20.4155C98.94 20.1298 98.4526 19.987 97.7832 19.987C97.1843 19.987 96.7439 20.0863 96.462 20.2851C96.1802 20.4838 96.0158 20.757 95.9688 21.1048H94.0839C94.1074 20.6825 94.2072 20.2975 94.3834 19.9497C94.5713 19.5895 94.8238 19.279 95.1409 19.0182C95.4697 18.7574 95.8631 18.5587 96.3211 18.4221C96.7791 18.273 97.2958 18.1985 97.8713 18.1985C98.4467 18.1985 98.9634 18.2668 99.4214 18.4034C99.8912 18.5401 100.29 18.7574 100.619 19.0555C100.948 19.3411 101.201 19.7137 101.377 20.1733C101.565 20.6328 101.659 21.1855 101.659 21.8313V25.7622C101.659 26.2839 101.664 26.7434 101.676 27.1409C101.688 27.5259 101.717 27.9047 101.764 28.2773H100.003C99.9675 27.9916 99.9382 27.7494 99.9147 27.5507C99.9029 27.352 99.8971 27.1036 99.8971 26.8055C99.6739 27.2651 99.2864 27.6625 98.7344 27.9978C98.1942 28.3207 97.5248 28.4822 96.7263 28.4822ZM97.2547 26.6937C97.5836 26.6937 97.8948 26.6503 98.1884 26.5633C98.4937 26.464 98.7579 26.3273 98.9811 26.1535C99.2042 25.9672 99.3803 25.7436 99.5095 25.4828C99.6504 25.2096 99.7209 24.8991 99.7209 24.5513V24.011H97.1667C96.6734 24.011 96.2741 24.1228 95.9688 24.3464C95.6752 24.5699 95.5284 24.8991 95.5284 25.3338C95.5284 25.7436 95.6635 26.0727 95.9336 26.3211C96.2154 26.5695 96.6558 26.6937 97.2547 26.6937Z" fill="#171B24"/>
<path d="M108.62 28.4822C107.822 28.4822 107.129 28.3891 106.542 28.2028C105.954 28.0165 105.461 27.7556 105.062 27.4203C104.674 27.085 104.375 26.6937 104.163 26.2466C103.952 25.7871 103.823 25.2841 103.776 24.7376H105.89C105.937 24.9984 106.013 25.2344 106.119 25.4455C106.236 25.6567 106.401 25.843 106.612 26.0044C106.823 26.1659 107.088 26.2901 107.405 26.377C107.734 26.464 108.139 26.5074 108.62 26.5074C109.113 26.5074 109.53 26.464 109.871 26.377C110.223 26.2777 110.505 26.1535 110.716 26.0044C110.94 25.843 111.098 25.6567 111.192 25.4455C111.298 25.222 111.351 24.986 111.351 24.7376C111.351 24.129 111.081 23.6695 110.54 23.359C110.012 23.0485 109.184 22.769 108.057 22.5206C107.422 22.3716 106.859 22.1977 106.365 21.999C105.872 21.7879 105.461 21.5333 105.132 21.2352C104.804 20.9247 104.551 20.5583 104.375 20.136C104.21 19.7013 104.128 19.1859 104.128 18.5897C104.128 18.1054 104.222 17.6458 104.41 17.2111C104.61 16.7764 104.897 16.3976 105.273 16.0747C105.649 15.7518 106.113 15.4972 106.665 15.3109C107.229 15.1246 107.88 15.0314 108.62 15.0314C109.337 15.0314 109.965 15.1184 110.505 15.2923C111.045 15.4661 111.497 15.7145 111.861 16.0374C112.237 16.3479 112.525 16.7205 112.725 17.1552C112.936 17.5899 113.065 18.0681 113.112 18.5897H110.998C110.904 18.1178 110.664 17.739 110.276 17.4533C109.9 17.1552 109.348 17.0062 108.62 17.0062C107.775 17.0062 107.164 17.1614 106.788 17.4719C106.424 17.7824 106.242 18.155 106.242 18.5897C106.242 19.1859 106.477 19.633 106.947 19.9311C107.416 20.2292 108.139 20.4838 109.113 20.6949C109.83 20.8564 110.458 21.0427 110.998 21.2538C111.55 21.465 112.008 21.732 112.372 22.0549C112.736 22.3654 113.007 22.738 113.183 23.1727C113.371 23.6074 113.465 24.129 113.465 24.7376C113.465 25.2717 113.365 25.7685 113.165 26.228C112.965 26.6875 112.66 27.085 112.249 27.4203C111.85 27.7556 111.345 28.0165 110.734 28.2028C110.135 28.3891 109.431 28.4822 108.62 28.4822Z" fill="#171B24"/>
<path d="M119.11 28.3704C118.042 28.3704 117.273 28.1282 116.803 27.6439C116.345 27.1595 116.116 26.377 116.116 25.2965V20.1546H114.795V18.4034H116.116V16.1679H118.054V18.4034H120.432V20.1546H118.054V25.017C118.054 25.6008 118.153 26.0106 118.353 26.2466C118.564 26.4702 118.964 26.582 119.551 26.582C119.903 26.582 120.255 26.5633 120.608 26.5261V28.2773C120.385 28.3021 120.156 28.3207 119.921 28.3332C119.686 28.358 119.416 28.3704 119.11 28.3704Z" fill="#171B24"/>
<path d="M126.518 28.4822C125.872 28.4822 125.267 28.3766 124.704 28.1655C124.152 27.9419 123.67 27.619 123.259 27.1967C122.848 26.7745 122.525 26.2528 122.29 25.6318C122.055 24.9984 121.938 24.2656 121.938 23.4335V23.0609C121.938 22.2785 122.055 21.5891 122.29 20.993C122.525 20.3844 122.848 19.8752 123.259 19.4653C123.67 19.0431 124.152 18.7264 124.704 18.5152C125.267 18.3041 125.872 18.1985 126.518 18.1985C127.164 18.1985 127.763 18.3041 128.315 18.5152C128.878 18.7264 129.366 19.0431 129.777 19.4653C130.188 19.8752 130.511 20.3844 130.746 20.993C130.981 21.5891 131.098 22.2785 131.098 23.0609V23.4335C131.098 24.2656 130.981 24.9984 130.746 25.6318C130.511 26.2528 130.188 26.7745 129.777 27.1967C129.366 27.619 128.878 27.9419 128.315 28.1655C127.763 28.3766 127.164 28.4822 126.518 28.4822ZM126.518 26.6937C126.859 26.6937 127.181 26.6316 127.487 26.5074C127.804 26.3832 128.08 26.1907 128.315 25.9299C128.561 25.6691 128.755 25.3338 128.896 24.9239C129.049 24.514 129.125 24.0172 129.125 23.4335V23.0609C129.125 22.5269 129.049 22.0673 128.896 21.6823C128.755 21.2973 128.561 20.9806 128.315 20.7322C128.08 20.4838 127.804 20.2975 127.487 20.1733C127.181 20.0491 126.859 19.987 126.518 19.987C126.177 19.987 125.849 20.0491 125.531 20.1733C125.226 20.2975 124.95 20.4838 124.704 20.7322C124.469 20.9806 124.275 21.2973 124.122 21.6823C123.981 22.0673 123.911 22.5269 123.911 23.0609V23.4335C123.911 24.0172 123.981 24.514 124.122 24.9239C124.275 25.3338 124.469 25.6691 124.704 25.9299C124.95 26.1907 125.226 26.3832 125.531 26.5074C125.849 26.6316 126.177 26.6937 126.518 26.6937Z" fill="#171B24"/>
<path d="M133.029 18.4034H134.826V20.0801C135.014 19.5709 135.319 19.13 135.742 18.7574C136.176 18.3848 136.71 18.1985 137.345 18.1985C137.638 18.1985 137.855 18.2109 137.996 18.2358C138.149 18.2606 138.255 18.2855 138.313 18.3103V20.1733C138.114 20.1112 137.932 20.0677 137.767 20.0429C137.603 20.0056 137.403 19.987 137.168 19.987C136.781 19.987 136.446 20.0615 136.164 20.2105C135.894 20.3472 135.671 20.5335 135.495 20.7694C135.319 20.993 135.184 21.26 135.09 21.5705C135.008 21.8686 134.967 22.1791 134.967 22.502V28.2773H133.029V18.4034Z" fill="#171B24"/>
<path d="M143.772 28.4822C143.15 28.4822 142.563 28.3828 142.011 28.1841C141.459 27.973 140.971 27.6625 140.549 27.2526C140.138 26.8304 139.809 26.3025 139.562 25.6691C139.316 25.0357 139.192 24.2905 139.192 23.4335V23.0609C139.192 22.2412 139.31 21.5271 139.545 20.9185C139.779 20.3099 140.096 19.8069 140.496 19.4095C140.907 18.9996 141.377 18.6953 141.905 18.4966C142.433 18.2979 142.997 18.1985 143.596 18.1985C145.017 18.1985 146.103 18.6022 146.855 19.4095C147.618 20.2167 148 21.3718 148 22.8746V23.9179H141.165C141.177 24.4271 141.253 24.8618 141.394 25.222C141.547 25.5697 141.741 25.8554 141.975 26.079C142.222 26.2901 142.498 26.4453 142.803 26.5447C143.12 26.6441 143.443 26.6937 143.772 26.6937C144.442 26.6937 144.929 26.582 145.234 26.3584C145.551 26.1348 145.769 25.843 145.886 25.4828H147.824C147.636 26.464 147.172 27.2092 146.432 27.7184C145.704 28.2276 144.817 28.4822 143.772 28.4822ZM143.684 19.987C143.355 19.987 143.038 20.0305 142.733 20.1174C142.439 20.2043 142.175 20.3472 141.94 20.5459C141.717 20.7322 141.535 20.9806 141.394 21.2911C141.253 21.5891 141.177 21.9555 141.165 22.3902H146.062C146.051 21.9307 145.98 21.5457 145.851 21.2352C145.733 20.9247 145.569 20.6763 145.358 20.49C145.146 20.3037 144.894 20.1733 144.6 20.0988C144.318 20.0242 144.013 19.987 143.684 19.987Z" fill="#171B24"/>
</svg>
