<svg width="46" height="56" viewBox="0 0 46 56" fill="none" xmlns="http://www.w3.org/2000/svg">
<rect x="2.18787" y="9.46362" width="43.6148" height="43.6148" rx="7.26913" fill="#FCEC41"/>
<rect x="0.00738525" y="11.6445" width="43.6148" height="43.6148" rx="7.26913" fill="#FBE303"/>
<path fill-rule="evenodd" clip-rule="evenodd" d="M18.1894 19.0207C18.0673 19.08 17.9265 19.2203 17.868 19.341C17.7703 19.543 17.7805 19.7254 18.0392 22.3823C18.1906 23.9368 18.3133 25.2749 18.3119 25.3557C18.2976 26.1713 17.0692 26.3192 16.8231 25.5349C16.7888 25.4258 16.6982 24.6606 16.6216 23.8344C16.545 23.0082 16.4701 22.2942 16.4551 22.2477C16.4203 22.1403 15.679 22.5329 14.7723 23.1388C12.9732 24.3412 11.5326 25.9966 10.5787 27.9574C10.2202 28.6944 9.80225 29.8953 9.63877 30.6581L9.52578 31.1854H9.07388C8.42255 31.1854 8.14199 31.2875 7.76097 31.6627C7.30232 32.1144 7.17557 32.5922 7.35535 33.1916C7.46068 33.5427 7.9983 34.0722 8.3548 34.176C8.56072 34.2359 11.6487 34.2537 21.8261 34.2537C36.7221 34.2537 35.4069 34.3014 35.9165 33.7431C36.4984 33.1056 36.4984 32.3336 35.9165 31.6961C35.5745 31.3213 35.215 31.1854 34.5661 31.1854H34.102L33.989 30.6581C33.4585 28.1824 32.0141 25.7457 30.0886 24.0782C29.098 23.2204 27.2368 22.0512 27.173 22.2466C27.1576 22.2937 27.0806 23.0226 27.002 23.8663C26.9234 24.7101 26.8208 25.4934 26.7741 25.6068C26.6754 25.8466 26.339 26.0711 26.0778 26.0714C25.6853 26.0719 25.3224 25.7311 25.3159 25.3557C25.3145 25.2749 25.4374 23.9348 25.589 22.3779C25.8604 19.5901 25.8628 19.5436 25.7454 19.3289C25.5141 18.9059 25.5748 18.9122 21.8041 18.9138C18.78 18.9151 18.3828 18.9269 18.1894 19.0207ZM10.9432 36.3582C10.1395 36.5517 9.50741 37.235 9.3843 38.0439L9.33848 38.3447H8.46675C7.62773 38.3447 7.58905 38.3506 7.43576 38.5017C7.27773 38.6573 7.27643 38.6684 7.27643 39.8789C7.27643 41.0893 7.27773 41.1005 7.43576 41.2561C7.58918 41.4073 7.62727 41.413 8.47415 41.413H9.35321V42.5275C9.35321 43.1477 9.38339 43.7218 9.42122 43.8219C9.51182 44.0616 11.7945 46.3234 12.0607 46.4374C12.3684 46.5692 18.7945 46.5692 19.1145 46.4375C19.3414 46.3442 19.3623 46.3206 20.1583 45.266C20.7209 44.5207 21.669 43.5217 21.8139 43.5217C21.9588 43.5217 22.9069 44.5207 23.4695 45.266C24.2655 46.3206 24.2864 46.3442 24.5133 46.4375C24.8333 46.5692 31.2594 46.5692 31.5671 46.4374C31.8333 46.3234 34.116 44.0616 34.2066 43.8219C34.2444 43.7218 34.2746 43.1477 34.2746 42.5275V41.413H35.1537C36.0005 41.413 36.0386 41.4073 36.192 41.2561C36.3501 41.1005 36.3514 41.0893 36.3514 39.8789C36.3514 38.6684 36.3501 38.6573 36.192 38.5017C36.0387 38.3506 36.0001 38.3447 35.161 38.3447H34.2893L34.2434 38.0431C34.1918 37.7044 33.9737 37.2437 33.7299 36.9582C33.6405 36.8536 33.3833 36.6697 33.1584 36.5496L32.7495 36.3312L21.9437 36.3213C16.0005 36.3158 11.0503 36.3325 10.9432 36.3582ZM32.1978 40.6929V43.041L31.4687 43.7611L30.7397 44.4813H28.1073H25.4749L25.0585 43.922C24.8295 43.6144 24.3051 43.0297 23.8932 42.6227C22.5457 41.2912 21.7635 41.1109 20.6155 41.8672C20.0643 42.2303 19.1444 43.1555 18.5611 43.9333L18.1502 44.4813H15.5213H12.8922L12.1611 43.7632L11.43 43.0451V40.6949V38.3447H21.8139H32.1978V40.6929Z" fill="#171B24"/>
<path fill-rule="evenodd" clip-rule="evenodd" d="M15.2726 9.46368C15.2726 4.64612 19.178 0.740723 23.9956 0.740723C28.8132 0.740723 32.7186 4.64612 32.7186 9.46368H29.8109C29.8109 6.25197 27.2073 3.64837 23.9956 3.64837C20.7839 3.64837 18.1803 6.25197 18.1803 9.46368H15.2726Z" fill="#FDF074"/>
<path fill-rule="evenodd" clip-rule="evenodd" d="M13.092 11.6446C13.092 6.82703 16.9974 2.92163 21.8149 2.92163H22.5418C27.3594 2.92163 31.2648 6.82703 31.2648 11.6446H28.3572C28.3572 8.43288 25.7536 5.82928 22.5418 5.82928H21.8149C18.6032 5.82928 15.9996 8.43288 15.9996 11.6446H13.092Z" fill="#FBE303"/>
</svg>
